<?xml version="1.0" standalone="no"?>
<!DOCTYPE svg PUBLIC "-//W3C//DTD SVG 20010904//EN"
 "http://www.w3.org/TR/2001/REC-SVG-20010904/DTD/svg10.dtd">
<svg version="1.0" xmlns="http://www.w3.org/2000/svg"
 width="260.000000pt" height="260.000000pt" viewBox="0 0 260.000000 260.000000"
 preserveAspectRatio="xMidYMid meet">
<metadata>
Created by potrace 1.14, written by Peter Selinger 2001-2017
</metadata>
<g transform="translate(0.000000,260.000000) scale(0.100000,-0.100000)"
fill="#000000" stroke="none">
<path d="M320 2495 c0 -32 -2 -35 -30 -35 -27 0 -30 -3 -30 -30 0 -28 -3 -30
-35 -30 -33 0 -35 -2 -35 -35 0 -32 -2 -35 -30 -35 -27 0 -30 -3 -30 -30 0
-27 -3 -30 -30 -30 l-30 0 0 -975 0 -975 30 0 c28 0 30 -3 30 -35 0 -32 2 -35
30 -35 27 0 30 -3 30 -30 0 -28 3 -30 35 -30 33 0 35 -2 35 -35 0 -32 2 -35
30 -35 27 0 30 -3 30 -30 l0 -30 975 0 975 0 0 30 c0 28 3 30 35 30 33 0 35 2
35 35 0 32 2 35 30 35 27 0 30 3 30 30 0 28 3 30 35 30 33 0 35 2 35 35 0 32
3 35 29 35 26 0 29 3 35 46 3 26 5 479 4 1008 0 529 -3 946 -5 929 -4 -29 -8
-33 -34 -33 -26 0 -29 3 -29 30 0 28 -3 30 -35 30 -33 0 -35 2 -35 35 0 32 -2
35 -30 35 -27 0 -30 3 -30 30 0 28 -3 30 -35 30 -33 0 -35 2 -35 35 l0 35
-975 0 -975 0 0 -35z"/>
</g>
</svg>
